<?xml version="1.0" standalone="no"?>
<!DOCTYPE svg PUBLIC "-//W3C//DTD SVG 1.1//EN" "http://www.w3.org/Graphics/SVG/1.1/DTD/svg11.dtd" >
<svg xmlns="http://www.w3.org/2000/svg" xmlns:xlink="http://www.w3.org/1999/xlink" version="1.1">
<metadata></metadata>
<defs>
<font id="yrdzstmedium" horiz-adv-x="256" >
<font-face units-per-em="256" ascent="204" descent="-52" />
<missing-glyph horiz-adv-x="71" />
<glyph horiz-adv-x="0" />
<glyph unicode=" "  horiz-adv-x="71" />
<glyph unicode="&#x09;" horiz-adv-x="71" />
<glyph unicode="&#xa0;" horiz-adv-x="71" />
<glyph horiz-adv-x="71" />
<glyph unicode="!" horiz-adv-x="52" d="M28 159l7 3l6 -3q-6 -77 -14 -122h-13l1 16q7 77 13 106zM20 23q10 -4 10 -10q-2 -12 -13 -12q-12 5 -7 16l-2 -3q25 13 12 9z" />
<glyph unicode="&#x22;" horiz-adv-x="60" d="M53 171q12 -1 17 -8v-11q-2 -12 -31 -38l-8 -2q11 23 13 28l-1 6q-7 20 10 25zM14 170q20 4 21 -12l-1 -8q1 -8 -32 -38l-2 8l12 24q-4 2 -5 16z" />
<glyph unicode="#" horiz-adv-x="132" d="M99 150h14q-3 -21 -5 -31h9q5 0 11 -10v-8h-12h-12q-1 -1 -4 -20.5l-3 -19.5l20 4q20 -2 13 -5q-1 -13 -3 -18l-35 3q2 -1 -4 -50l-13 -1l-9 3l8 46q-2 1 -32 1q0 -14 -3 -27q-6 -22 -12 -22h-2q-4 0 -10 8q5 20 10 37q0 1 -3 1l-21 1l6 12q0 7 9 7l11 1q4 2 10 33 q2 2 -23 4l2 16h23q4 0 5 15q3 5 5 19l20 -1l-8 -31h28l1 11q4 38 9 22zM59 100l-10 -39l28 1l4 18l4 20h-26z" />
<glyph unicode="$" horiz-adv-x="115" d="M53 167l14 -1q-1 -19 11 -19t24 -27l-11 -8q-10 23 -24 18q-1 -7 -1 -32q28 -5 37 -36v-4q2 -40 -42 -46v-17l-17 1v16q-30 4 -42 32v5q0 6 8 6q22 -25 37 -25v22l1 29q-6 1 -21 10q-16 11 -9 31q4 26 34 27zM35 110q2 -6 16 -7v27h-7q-9 -4 -9 -20zM64 55l-1 -24 q25 6 23 23q-8 19 -20 23z" />
<glyph unicode="%" horiz-adv-x="130" d="M98 160q6 -1 6 -7v-4q-16 -36 -83 -160h-8q-6 0 -6 9q15 20 84 156q1 6 7 6zM33 147q19 -9 19 -27q-11 -28 -26 -28h-3q-19 11 -19 24q1 26 29 31zM17 116q0 -6 9 -9q10 0 12 17q-1 5 -6 8q-15 0 -15 -16zM103 68q18 -7 18 -24v-2q-9 -17 -22 -24q-23 2 -24 22 q2 27 28 28zM90 44v-6q0 -2 5 -5h2q6 1 9 9q2 11 -5 11q-10 2 -11 -9z" />
<glyph unicode="&#x26;" horiz-adv-x="130" d="M55 158q35 -3 35 -27v-2q0 -21 -21 -42q12 -22 21 -28q6 4 23 26q12 3 2 -15q-12 -19 -14 -27q22 -31 22 -38l-4 -6q-7 1 -29 32v0q-21 -29 -44 -29q-37 5 -35 41q0 27 30 44q-14 11 -16 31.5t9.5 30t20.5 9.5zM46 115q1 -5 10 -15q15 10 16 26q-1 14 -17 14l-3 -2 q-10 -8 -6 -23zM53 74q-25 -13 -25 -30q3 -17 19 -22q9 -3 30 25v0q-14 18 -24 27z" />
<glyph unicode="'" horiz-adv-x="24" d="M17 175h6q5 0 11 -10v-5q0 -13 -27 -38h-5v6q12 16 11 21l-2 5q-4 0 -3 11q5 10 9 10z" />
<glyph unicode="(" horiz-adv-x="62" d="M53 160v-10q-24 -27 -27 -66v-15q3 -26 29 -62v-7h-4q-24 0 -40 65q-2 11 0 25q16 70 42 70z" />
<glyph unicode=")" horiz-adv-x="67" d="M20 163h10q28 -32 28 -64q0 -57 -43 -103h-3q-4 0 -9 8v4q38 41 39 96q-2 22 -22 59z" />
<glyph unicode="*" horiz-adv-x="74" d="M38 123q5 -13 9 -27q16 1 28 -3l-22 -17q6 -12 6 -30q-15 11 -23 16q-5 -5 -26 -20q8 25 11 33q-3 4 -22 16l8 5h18q4 -1 6 23z" />
<glyph unicode="+" horiz-adv-x="138" d="M65 151l12 -1q-4 -8 -3 -53q16 -1 35 1h17v-20h-17h-33q0 -6 -2 -64l-18 -1v14q-1 24 0 39q-3 30 6 11q-30 1 -49 0l-1 19h22h22v0q0 11 1 38v15q4 2 8 2z" />
<glyph unicode="," horiz-adv-x="50" d="M24 28q16 2 16 -17q4 -13 -34 -41h-5v5q0 2 16 25q-5 4 -5 16q3 11 12 12z" />
<glyph unicode="-" horiz-adv-x="138" d="M112 87l5 -11v-6l-15 -1q-28 -1 -76 -1l-6 11q1 6 11 6q41 2 81 2z" />
<glyph unicode="." horiz-adv-x="45" d="M26 14q12 -3 15 -13v-8q-8 -12 -17 -12q-16 7 -16 18q7 15 18 15z" />
<glyph unicode="/" horiz-adv-x="75" d="M73 174l4 -1q6 -1 6 -6q-17 -59 -64 -181l-14 3q0 8 40 116q21 68 28 69z" />
<glyph unicode="0" horiz-adv-x="129" d="M65 163h9q45 2 56 -62q-3 -98 -59 -112h-2q-29 2 -42.5 23.5t-16.5 50.5l2 28q14 63 53 72zM31 91l-2 -14q0 -48 30 -66h12q31 5 40 66v31q-9 32 -36 38l-5 -1q-23 -5 -39 -54z" />
<glyph unicode="1" horiz-adv-x="129" d="M72 164h14q0 -4 3 -10l-29 -163h-5l-13 6z" />
<glyph unicode="2" horiz-adv-x="129" d="M55 162q58 9 58 -38q-5 -21 -73 -97l-10 -13h2h4q12 0 68 1q14 -3 14 -13l-3 -7h-34l-38 -1q-20 0 -20 -3q-20 9 -20 16q0 4 84 104l8 16q-7 22 -43 16q-24 -12 -31 -26h-6q0 5 -2 7q13 36 42 38z" />
<glyph unicode="3" horiz-adv-x="129" d="M58 166q44 1 44 -34q-6 -29 -34 -37l-2 2q55 -3 47 -60q-6 -39 -47 -45q-13 -3 -29 0q-23 4 -34 27v8l27 -15q45 -12 62 27q9 42 -38 41l-11 -2l-14 -5h-2q-5 0 -9 9v3q42 21 58 40q10 25 -17 23l-7 -1l-29 -15v10q8 19 35 24z" />
<glyph unicode="4" horiz-adv-x="129" d="M60 169l7 -15q-33 -79 -33 -90h22h18l15 80q0 6 3.5 9t13.5 -9l-13 -77h3l13 1l12 2q7 -7 5 -16q1 -4 -23 -5h-12q-3 1 -8 -58l-6 -4h-3q-5 0 -10 11l8 48v2l-25 -2h-11q-31 -4 -26 14q30 84 50 109z" />
<glyph unicode="5" horiz-adv-x="129" d="M44 159h21h20h12q13 -1 13 -11v-2q0 -10 -7 -3q-25 -3 -59 0q-8 -34 -8 -44v-3l13 1q5 -1 5 1q46 3 57 -22l2 -3q17 -83 -58 -82q-28 -1 -47 30v10h7q4 0 18 -13l20 -8q35 0 41 22l2 19q-1 32 -33 29q-16 0 -38 -7q-4 0 -9 11l14 79q11 -4 14 -4z" />
<glyph unicode="6" horiz-adv-x="129" d="M83 161q4 -2 10 -2v-9q-31 0 -51 -62h4h6l14 2q51 -5 48 -47q-4 -49 -48 -53q-57 -3 -51 78q9 39 30 71q26 22 38 22zM34 55q-2 -43 28 -47h2q22 0 31 30q5 31 -31 36l-17 -3q-8 -1 -13 -16z" />
<glyph unicode="7" horiz-adv-x="129" d="M106 166q14 -6 14 -15q-34 -43 -47 -89.5t-22 -72.5h-3q-12 6 -12 17q35 119 68 160q-10 -21 -21 -16q-27 -3 -48 -3h-5q-7 0 -7 7v7q16 3 83 5z" />
<glyph unicode="8" horiz-adv-x="129" d="M68 164q48 -4 44 -44v-2q0 -17 -21 -32q10 -7 19 -20t8 -27q0 -48 -48 -48q-48 -6 -57 39q1 40 30 55q-12 7 -19 29v14q-1 34 44 36zM43 123q0 -20 25 -28q23 4 26 30q-3 26 -28 26q-27 -8 -23 -28zM34 33q4 -26 34 -22q27 0 30 25q-3 33 -31 40q-35 -11 -33 -43z" />
<glyph unicode="9" horiz-adv-x="129" d="M64 164q52 6 55 -46q0 -58 -65 -115q-29 -17 -35 -14l-9 6q17 12 32 22q28 24 37 41l7 11q-22 -7 -45 2t-23 43q5 50 46 50zM35 112q2 -24 24 -27h3q32 2 33 11q5 9 4 20v4q1 27 -31 28l-10 -1q-23 -7 -23 -35z" />
<glyph unicode=":" horiz-adv-x="79" d="M23 61q1 18 16 17q15 1 16 -16q0 -17 -17 -17q-17 2 -15 16zM23 8q1 19 16 18q15 1 16 -17q0 -17 -17 -17q-17 2 -15 16z" />
<glyph unicode=";" horiz-adv-x="78" d="M26 61q1 18 16 17q16 1 17 -16q0 -17 -18 -17q-16 2 -15 16zM39 29q16 2 17 -16q3 -15 -36 -41h-5v4q0 2 17 23q-9 4 -8 15q2 15 15 15z" />
<glyph unicode="&#x3c;" horiz-adv-x="106" d="M91 137q3 0 8 -8v-4l-71 -48q9 -11 69 -43l2 -5v-6h-6q-63 25 -90 53v5l84 56h4z" />
<glyph unicode="=" horiz-adv-x="137" d="M111 110q17 -6 17 -11v-8h-19q-20 0 -42 -1q-33 -1 -60 3v4q4 9 13 11h45q22 0 46 2zM20 71h91q17 -1 17 -9v-4q0 -7 -27 -9l-5 2h-64q-27 2 -27 11v6z" />
<glyph unicode="&#x3e;" horiz-adv-x="107" d="M19 138q84 -33 90 -43v-6q-83 -67 -97 -67h-8v6q0 5 62 50q10 10 10 17q-59 29 -64 35q0 8 7 8z" />
<glyph unicode="?" horiz-adv-x="77" d="M35 170q31 6 45 -31q-1 -26 -20.5 -40.5t-16.5 -50.5l-5 -4h-11v14q-3 41 30 64l3 7q3 19 -20 22q-18 1 -25 -17l-6 -17q-6 0 -12 12l2 12q9 29 36 29zM34 32q20 0 13 -18q0 -7 -10 -8t-13 14q3 10 10 12z" />
<glyph unicode="@" horiz-adv-x="175" d="M95 166q76 -11 73 -79q-9 -50 -42 -50q-17 1 -24 17q-16 -13 -33 -10q-22 2 -21 30q-1 40 34 51q37 5 37 -29q-2 -23 -2 -31q0 -6 6 -9h7q28 13 20 59q-15 30 -54 35q-38 4 -63 -37q-14 -30 -6 -56q4 -29 51 -42q27 -5 61 9q15 10 15 3v-8q-28 -21 -64 -22q-65 5 -80 57 q-6 31 3.5 57.5t33 40.5t48.5 14zM63 67q7 -11 20 -4q15 10 18 28q2 16 -10 16q-28 -1 -28 -40z" />
<glyph unicode="A" horiz-adv-x="148" d="M88 160l10 1q20 -3 39 -122l3 -41h-6q-6 0 -9 8q-3 63 -13 63h-53h-15q-2 -4 -32 -55l-7 -5h-7v9q18 26 70 122l12 20h14v-6q-21 -38 -40 -68l-1 -2h25q34 0 34 4v5q-2 20 -20 57q0 -1 -4 6v4z" />
<glyph unicode="B" horiz-adv-x="136" d="M63 163q38 -8 38 -31q2 -17 -18 -34q42 0 46 -41q5 -42 -59 -56q-15 -2 -19 -2l-35 2q-2 12 -2 52v29v6q-1 74 9 74zM31 146l-1 -9q-1 -17 -1 -43l4 -2q22 0 48 28q5 12 5 17q-4 12 -25 12h-16q-11 -2 -14 -3zM29 66v-22v-23q2 -7 38 -3q46 12 45 39l-1 8q-8 15 -26 17 l-19 -1q-25 -3 -37 -15z" />
<glyph unicode="C" horiz-adv-x="136" d="M64 161q39 8 54 -23l-8 -3q-18 15 -42 10q-41 -26 -41 -65q-4 -50 33 -62l11 -1q24 -1 50 28l7 -1q6 -10 1 -12q-28 -34 -62 -34h-4q-57 12 -55 77q-3 54 48 83q4 3 8 3z" />
<glyph unicode="D" horiz-adv-x="138" d="M46 165l16 -1q57 -4 67 -62l1 -12q-1 -63 -56 -89q-20 -2 -32 -2h-29v19v38v11v95q15 3 33 3zM30 150v-104q0 -30 -1 -30l25 1q33 7 50 39q11 20 4 54q-10 41 -77 40h-1z" />
<glyph unicode="E" horiz-adv-x="135" d="M106 163q16 0 20 -3l3 -9q0 -4 -9 -4l-86 -1q1 0 0 -18q1 -29 -1 -35v-2h56h10q13 2 19 -4l-1 -13h-33h-51v-6q-1 -14 -2 -49l4 -3h62h25q12 -4 12 -9v-3q0 -6 -20 -6h-10h-67q-18 -1 -24 2v12q0 31 2 37v14q3 73 3 84v13l6 3h42h40z" />
<glyph unicode="F" horiz-adv-x="116" d="M25 163q15 1 64 2h13q13 0 13 -5l1 -4q0 -6 -14 -9l-71 -1l-2 -45v-2q0 -1 36 2h25q17 2 17 -5l1 -7l-3 -5h-19q-20 -1 -36 -2l-21 -2q0 -53 1 -73q0 -4 -3 -7l-7 -1l-6 3v6l-1 29q3 122 12 126z" />
<glyph unicode="G" horiz-adv-x="145" d="M70 163q35 1 43 -16v-4q-27 4 -36 4l-12 -1q-21 -7 -35 -46q-8 -35 -3 -54q6 -18 19 -24l15 -3q22 1 45 45v7q0 2 -2 2q-11 -1 -26 -2q-13 2 -13 9v7l51 2h14q13 -5 13 -10l-5 -7l-12 2q3 -77 -5 -77h-2q-3 0 -9 3q-1 13 0 25l-1 10l-7 -9q-25 -25 -46 -25q-40 4 -49 44 q-2 70 30 103q13 13 33 15z" />
<glyph unicode="H" horiz-adv-x="146" d="M122 163h9v-41v-18q-4 -68 -4 -94q-4 -12 -9 -12q-12 2 -8 24q1 22 1 30v24q0 13 0 11l-41 1h-19h-17q-1 0 -1 -1q-2 -69 -5 -83h-6q-5 0 -10 10v17q5 86 10 132h8l7 -3q-2 -38 -2 -48v-6q0 -2 14 0q24 -2 27 -2h19l19 -2q1 25 1 35v19q1 7 7 7z" />
<glyph unicode="I" horiz-adv-x="56" d="M15 161q31 3 38 2l-1 -16l-10 2v-29q-2 -27 -5 -104q10 1 18 0l1 -16h-14.5h-16h-20.5l-2 8l-1 7l16 2q3 16 3 22v7q2 27 6 110q8 -11 -15 -10q3 9 3 15z" />
<glyph unicode="J" horiz-adv-x="90" d="M38 162q39 2 45 1l-1 -16q-9 1 -11 3v-10q0 -35 2 -72q2 -65 -32 -69q-23 -5 -39 14l-5 11q-2 16 9 20h5q1 -21 14 -26l14 -2q16 2 16 66q-1 33 -4 79q8 -16 -13 -14v15z" />
<glyph unicode="K" horiz-adv-x="128" d="M105 161h7q6 -1 6 -6l-1 -10q-35 -27 -72 -65l70 -59q7 -3 14 -15l-7 -5l-7 -2q-75 67 -84 67v0q-2 -32 -3 -49v-5l-2 -14h-4h-12l3 45l3 53l4 64h4q6 0 12 -12q-3 -36 -3 -54v-5v0q14 10 72 72z" />
<glyph unicode="L" horiz-adv-x="114" d="M29 162h2q9 -1 9 -18l-5 -122v-4q44 -1 65 1q12 -2 12 -14q0 -6 -7 -6h-38h-30h-9h-16l9 127l2 32q-4 4 6 4z" />
<glyph unicode="M" horiz-adv-x="187" d="M135 161h8q14 0 29 -125l7 -38h-11q-3 0 -11 12l-4 31q-10 83 -13 83q-10 -21 -48 -120q-10 6 -23 77q-3 18 -3 30l-3 11q0 5 -1 6v-2q-1 -5 -8 -31q-11 -22 -36 -85h-8q-6 0 -6 6v2q17 38 53 135l7 2h4q8 -6 24 -101l1 -3q11 17 39 98z" />
<glyph unicode="N" horiz-adv-x="149" d="M128 163q6 0 18 -9q-8 -49 -18 -156h-5q-10 8 -57 97q-24 40 -24 31l2 6l-19 -129h-9q-6 0 -7 9q15 132 27 146q17 0 68 -97q3 -6 8 -13v0q9 81 16 115z" />
<glyph unicode="O" horiz-adv-x="146" d="M98 162q40 -12 39 -74v-9q-6 -66 -48 -78q-9 -4 -32 -2q-52 12 -49 68l2 21q9 43 27 57q21 21 61 17zM26 65q1 -47 42 -48q38 2 52 61q3 68 -37 68h-6q-36 0 -49 -58q-2 -7 -2 -23z" />
<glyph unicode="P" horiz-adv-x="112" d="M65 163q49 -8 47 -42q2 -42 -44 -47q-3 1 -39 0v-34l2 -21l-1 -21h-6q-5 0 -11 15q1 80 2 125v14q2 11 48 11h2zM33 143v-15v-23v-14q4 1 34 1q25 7 27 26q1 24 -29 29h-25q-3 0 -7 -4z" />
<glyph unicode="Q" horiz-adv-x="147" d="M67 161q64 11 69 -65v-19q-7 -28 -15 -42l-1 -1q4 -6 13 -14l8 -10q-2 -11 -8 -11h-5q-18 18 -22 18q-27 -19 -59 -15q-42 22 -39 69q-1 36 21 69q17 16 38 21zM26 82q-4 -41 24 -59l12 -4q28 6 29 12v2q0 1 -17 14v3q3 6 9 8q13 -7 22 -13q16 16 15 57q-10 49 -53 42 q-10 -3 -21 -12q-14 -13 -20 -50z" />
<glyph unicode="R" horiz-adv-x="131" d="M44 161q72 5 75 -39q0 -27 -28 -43q-14 -6 -29 -8q37 -35 72 -71l-15 -1h-10q-42 44 -75 72q-1 -2 -1 -34l-1 -33q0 -6 -6 -6h-3l-10 1q3 158 10 161zM36 90l5 -1l11 1q53 -1 46 39q-10 19 -61 15q-4 1 -1 -54z" />
<glyph unicode="S" horiz-adv-x="119" d="M72 163q25 -4 32 -17l-1 -4l-3 -6l-21 10q-39 9 -47 -21q3 -20 48 -34q32 -10 31 -47q-12 -50 -69 -44q-31 3 -41 36v7l9 6q14 -26 35 -32l20 2q23 6 25 26v4q-1 23 -33 29q-46 18 -43 48q4 43 58 37z" />
<glyph unicode="T" horiz-adv-x="109" d="M119 163q11 -1 11 -6v-8l-11 -1h-8q-11 1 -40 1v-5v-7q-2 -18 -3 -138h-4h-11q0 74 1 105q2 27 1 37l1 7h-56q-3 3 -3 14l44 1h32h46z" />
<glyph unicode="U" horiz-adv-x="141" d="M115 163h5q9 -1 14 -3q-2 -111 -2 -131v-24q0 -6 -7 -6l-11 1q-3 3 -3 17v14l-7 -10q-21 -20 -44 -20q-47 -1 -45 57q0 12 0.5 19.5t1.5 28.5v7q1 40 1 47h7q1 0 10 -1q-1 -43 -1 -94v-5q-2 -38 22 -41q43 -1 58 52q1 62 1 73v19z" />
<glyph unicode="V" horiz-adv-x="127" d="M126 163q8 -3 12 -6l-31 -80q-24 -52 -38 -78l-5 -1q-14 2 -63 159v6h12q6 -3 46 -121l6 -9q21 44 56 130h5z" />
<glyph unicode="W" horiz-adv-x="167" d="M7 160h14q8 -25 26 -113l2 4q25 80 30 102h7q10 -3 41 -107l-2 6q0 -14 30 97l4 17l7 -4q3 0 8 -10q0 -6 -22 -80q-14 -53 -22 -75l-5 2q-11 10 -40 109l-1 3l-1 -3q-26 -99 -38 -109q-15 4 -26 80z" />
<glyph unicode="X" horiz-adv-x="136" d="M110 166l4 -4q6 -4 6 -8v-3q-40 -53 -43 -63l1 -2q56 -69 55 -72v-15h-11l-55 74l-1 2q-47 -70 -58 -78q-6 10 -6 18l50 71l3 5l-43 59v4l12 9q4 -11 40 -58l2 -5q4 5 22 35q6 9 22 31z" />
<glyph unicode="Y" horiz-adv-x="101" d="M108 163h14q-32 -46 -41 -56q-23 -29 -13 2q-2 -35 -2 -46l1 -52q0 -12 -4 -12q-16 -2 -16 4q1 60 1 68v19l-55 73h23l33 -40l9 -11q44 48 50 51z" />
<glyph unicode="Z" horiz-adv-x="139" d="M109 162q17 0 17 -4l-3 -12q-36 -38 -80 -102q-1 -5 -14 -19l-5 -7h20h41l44 1q5 2 8 -19h-8q-7 -1 -25 -1h-18h-70q-20 0 -19 9l1 5q6 13 81 114q4 6 13 17h-49h-27q-4 0 -3 18h96z" />
<glyph unicode="[" horiz-adv-x="88" d="M60 170q4 -6 4 -14l-27 -1q1 -123 0 -147h31l2 -19h-19h-32q1 39 1 80q-1 46 0 100h13q5 2 27 1z" />
<glyph unicode="\" horiz-adv-x="88" d="M19 165l40 -103q9 -24 20 -53q4 -12 -12 -12l-22 59l-36 101v2q1 6 10 6z" />
<glyph unicode="]" horiz-adv-x="89" d="M18 -10q3 10 2 18l30 1q-1 119 0 145h-30l4 17h12h32q-1 -39 -1 -80q1 -46 0 -101h-49z" />
<glyph unicode="^" d="M68 114l58 69l38 -42l20 -25q0 -33 -36 9l-22 27l-44 -53z" />
<glyph unicode="_" d="M171 21v-10l-1 -7h-14q-23 -1 -77 -1v11q1 6 11 6q41 2 81 1z" />
<glyph unicode="`" d="M108 153l18 1q30 -31 9 -46z" />
<glyph unicode="a" horiz-adv-x="96" d="M54 92q18 1 30 -20q-2 -25 -6 -36l2 -8q1 -6 6 -12q7 -7 7 -13l-14 -3q-10 6 -15 20q-18 -21 -33 -20q-24 3 -27 29q3 50 32 62q11 3 18 1zM21 41l1 -13q2 -8 6 -8h7q16 0 28 32l3 17q-4 8 -14 8h-1q-23 0 -30 -36z" />
<glyph unicode="b" horiz-adv-x="101" d="M22 176h5q8 -3 8 -14l-1 -52q0 -8 -1 -16h33q31 -7 33 -38q-3 -55 -46 -55q-8 -1 -25 -1h-12l-4 9q4 0 9 158q1 6 1 9zM33 73v-16q-2 -30 0 -36q52 -4 46 37q-5 24 -26 19q-22 0 -20 -4z" />
<glyph unicode="c" horiz-adv-x="86" d="M41 93q36 0 34 -17v-5h-5q-12 7 -19 7h-6q-26 -7 -23 -40q0 -14 15 -20q22 -6 44 10l-3 -15q-7 -13 -38 -14q-36 7 -34 44q0 39 35 50z" />
<glyph unicode="d" horiz-adv-x="111" d="M86 169l8 -1q7 0 7 -9q-14 -73 -15 -109q1 -32 22 -33l4 -8v-2q0 -4 -10 -10q-31 5 -33 26l-24 -20l-8 -2q-33 2 -31 38q5 49 40 55q23 3 26 -5q2 12 14 80zM24 38q0 -18 10 -18q13 0 32 44q0 12 -9 15h-7q-19 -3 -26 -41z" />
<glyph unicode="e" horiz-adv-x="91" d="M44 94q31 0 37 -24q0 -22 -60 -33v0q3 -21 19 -20q11 -3 43 12l-1 -13q-19 -17 -40 -17q-41 1 -40 49q6 39 42 46zM22 54h4q25 0 38 19v1q0 4 -6 6h-6q-29 -7 -30 -26z" />
<glyph unicode="f" horiz-adv-x="73" d="M49 156l10 -2q4 -8 -1 -19q-16 13 -16 -33v-9q32 8 30 -18q-18 2 -29 1q2 -51 2 -63q0 -60 -36 -60h-4v10q25 6 25 63q-3 42 -3 49q-12 -2 -26 -1q-9 13 0 18q24 -1 25 -1q-2 68 23 65z" />
<glyph unicode="g" horiz-adv-x="89" d="M48 94q33 2 27 -37q1 -14 -1 -27v-32q0 -49 -37 -49l-16 3q-22 12 -18 40l6 4q8 -27 28 -29q23 2 20 41q-1 4 -2 2q-3 -4 -16 -6q-33 3 -28 46q4 42 37 44zM26 46q-4 -21 13 -25q20 10 20 33l-2 20q0 2 -1 2h-4q-24 -1 -26 -30z" />
<glyph unicode="h" horiz-adv-x="100" d="M28 173l4 -5v-17q0 -31 -3 -72v3q8 12 33 11q22 2 18 -39q-5 -33 17 -40v-11l-9 -2q-31 -1 -27 70l-3 1q-33 0 -33 -72h-7q-11 4 -11 17q5 0 13 143q2 13 8 13z" />
<glyph unicode="i" horiz-adv-x="51" d="M26 120q10 -4 11 -11v-3q0 -6 -5 -6h-4q-11 7 -11 19q7 1 9 1zM22 94h3q4 0 11 -7q-7 -26 -9 -55q-1 -16 6 -14l10 4h5q0 -13 -10 -21q-27 -9 -25 30q2 34 5 44l-8 -6l-3 15z" />
<glyph unicode="j" horiz-adv-x="47" d="M17 127q15 0 22 -11q-2 -5 -2 -10h-7q-13 3 -13 21zM27 97q12 4 11 -16q0 -50 -1 -74v-14q-4 -43 -32 -42q-24 11 -24 25v5h5q11 -14 22 -10q11 8 11 24l2 24q0 6 1 16t1 22v16q0 2 -13 5z" />
<glyph unicode="k" horiz-adv-x="88" d="M28 147l4 4q5 1 11 -3q-5 -46 -7 -59q10 7 19 7q28 -4 21 -23q-1 -25 -29 -29l4 -6q16 -24 25 -24h7h4q6 -4 6 -8v-2q-6 -9 -17 -9q-13 -2 -48 47v-3l-5 -44h-8q-6 0 -6 7l-1 6q8 39 20 139zM33 69l-2 -12q-1 -3 13 -3q15 6 16 19v7q0 2 -7 0q-11 0 -20 -11z" />
<glyph unicode="l" horiz-adv-x="59" d="M19 159q12 7 16 -3q-3 -30 -5 -47l-4 -59q-3 -23 6 -28l8 1l10 8q3 0 9 -6q0 -12 -24 -25q-32 1 -24 54q0 13 8 105z" />
<glyph unicode="m" horiz-adv-x="140" d="M94 92q29 -1 27 -22v-34q0 -22 19 -26v-6l-7 -4q-32 -3 -29 70l-5 2q-22 3 -23 -24q0 -42 -3 -42l-5 -2q-7 3 -7 9v36q-2 21 -15 18q-17 4 -19 -66l-9 -1q-9 3 -8 18v6q6 38 4 45q-3 8 -13 17l15 3q10 -8 11 -9l3 1q8 7 20 8q14 -3 19 -9q11 12 25 12z" />
<glyph unicode="n" horiz-adv-x="107" d="M11 95l15 -7l1 -14l15 12l14 6l4 1q32 4 23 -26l-2 -25q1 -25 13 -26l11 -3q-6 -13 -11 -13q-28 -4 -29 41q2 19 4 32q0 1 -8 1q-24 -11 -26 -21q-8 -13 -10 -52h-12q-10 5 -7 16q7 9 7 57q-2 10 -2 21z" />
<glyph unicode="o" horiz-adv-x="94" d="M46 94q37 -2 40 -48q-2 -41 -43 -47q-38 0 -39 46q7 46 36 49h6zM23 53l-1 -14q1 -19 21 -24q26 8 26 30q5 28 -25 33q-20 -5 -21 -25z" />
<glyph unicode="p" horiz-adv-x="94" d="M35 102q1 -13 4 -10h25q28 -4 28 -43q-4 -41 -55 -43q0 -46 -25 -62q-11 5 -11 10q18 11 18 42q2 0 2 17v26v26q0 -1 -6 3h-13v5q18 10 33 29zM37 70v-43q1 -4 3 -4h3q20 0 30 19l2 16q-2 19 -20 18q-18 -2 -18 -6z" />
<glyph unicode="q" horiz-adv-x="86" d="M38 92q27 0 35 -21l3 -11l-11 1q-7 12 -20 12h-3q-22 -14 -16 -41q4 -9 12 -10q20 5 23 47h6q3 0 9 -8l-5 -79v-4l4 4l12 10h6q-11 -24 -29 -46q-8 0 -9 11q-1 15 1 42v5v6q-6 -7 -18 -3q-15 0 -27 19q-10 48 27 66z" />
<glyph unicode="r" horiz-adv-x="75" d="M61 92h1q19 -3 19 -18l-12 -7q-6 11 -17 6q-27 -23 -24 -56v-11q0 -6 -8 -6h-2q-4 0 -7 7v9q0 2 2 40v6q0 8 -6 24q4 8 17 8l2 -10q1 -8 3 -13h-1q18 21 33 21z" />
<glyph unicode="s" horiz-adv-x="75" d="M40 95q17 0 23 -14v-4q-4 0 -18 4h-2q-13 -2 -17 -11l4 -7q34 -20 34 -28q3 -5 3 -10q-6 -30 -34 -26q-29 0 -31 32l8 1q9 -20 25 -15q12 -2 14 11q-9 13 -22.5 19.5t-14.5 20.5q0 23 28 27z" />
<glyph unicode="t" horiz-adv-x="68" d="M28 122l11 -5l-1 -16l-1 -12l13 1v2q10 0 17 -14q-9 -4 -13 -4h-19q-1 0 -4 -32q-2 -24 7 -24h8l9 10q7 0 7 -5q-5 -23 -22 -23q-29 -4 -25 49l3 12v13l-18 -1l4 15q20 -1 19 2q2 21 5 32z" />
<glyph unicode="u" horiz-adv-x="90" d="M29 92q6 0 6 -10q-9 -26 -10 -54l3 -6q29 -17 43 59q2 4 2 8h11q0 -4 2 -9q-7 -33 -7 -53q0 -1 9 -21v-6h-5q-12 0 -18 16q-10 -17 -32 -15q-22 8 -22 24v2q0 13 7 49q-20 0 -3 11q7 5 14 5z" />
<glyph unicode="v" horiz-adv-x="77" d="M56 94h7q12 -8 12 -12q0 -20 -39 -81q-18 0 -25 70q-4 3 -8 3v6q0 6 6 6h6q8 0 19 -58q10 4 26 48q-4 13 -4 18z" />
<glyph unicode="w" horiz-adv-x="111" d="M91 97h6q11 -7 12 -22q-3 -23 -30 -73h-6q-6 5 -17 51v0q0 -6 -29 -54q-14 7 -19 91h8q3 0 8 -9q-2 -11 -2 -13q2 -26 5 -36l1 -4h-1q14 30 25 56h3q9 0 21 -49q5 2 18 44q-3 10 -3 18z" />
<glyph unicode="x" horiz-adv-x="96" d="M89 89h1v-6q-19 -10 -28 -27l-4 -8q9 -24 17 -33l18 1v-7q-1 -7 -12 -10q-22 -6 -34 28l-1 1q-18 -31 -33 -27q-12 2 -12 8l14 8q14 10 26 34q-9 21 -29 26q7 10 12 9q15 2 27 -17l1 -3q14 25 37 23z" />
<glyph unicode="y" horiz-adv-x="94" d="M1 77l18 16q4 0 12 -14q-2 -21 -1 -54l12 8q19 17 21 59h7q9 -1 7 -27v-69q0 -4 1 -13q-3 -23 -14 -29q-6 -10 -26 -9q-29 1 -37 37v4h5q17 -24 33 -23q20 3 20 18v43q0 -3 4 9q-12 -11 -32 -32q-6 0 -18 8l2 6v57q1 5 -14 5z" />
<glyph unicode="z" horiz-adv-x="84" d="M70 91l5 -8v-5q-19 -14 -46 -54l-4 -6q40 -1 49 -1l8 -10v-6q-34 0 -79 -1v15l43 60v-1h-20q-6 -1 -9 0q-8 6 -8 11v4h11q27 1 50 2z" />
<glyph unicode="{" d="M185 208h4q6 -1 6 -6v-3q-11 -14 -11 -21v-53q0 -2 -0.5 -14.5t-12.5 -29.5q11 -2 11 -100q3 -19 17 -30h-8q-29 0 -29 73v23q0 21 -13 31v4q18 17 18 38v58q0 18 18 30z" />
<glyph unicode="|" d="M132 175q1 -47 1 -69v-123h-4q-3 0 -13 4v68.5v37.5v35.5t-2 48.5q6 -3 18 -2z" />
<glyph unicode="}" d="M56 201l10 -2q20 -11 19 -30l-1 -16v-28q0 -16 16 -35q-11 -20 -11 -29q0 -12 2 -42q0 -40 -24 -51l-13 -3l-5 8q25 9 25 46v16v26q0 5 6 26v4q-11 24 -11 38v42q1 11 -9 19z" />
<glyph unicode="~" d="M104 101q18 -1 42 -23l9 -2q10 2 44 21l3 -7q-33 -33 -43 -33q-16 2 -44 25l-13 3q-10 1 -36 -23q-7 0 -7 8q23 30 45 31z" />
<glyph unicode="&#xa4;" d="M82 64q3 -35 47 -37q36 -1 45 47q-4 56 -44 56h-6q-34 1 -43 -47q-1 -6 1 -19zM172 130l24 26l12 -13q-19 -21 -26 -28q6 -11 8 -32l1 -8q-2 -26 -9 -39l24 -23l-12 -13q-14 10 -24 21q-8 -7 -19 -10q-9 -4 -32 -2q-27 2 -40 15l-23 -26l-12 13q18 20 24 28q-4 8 -6 26 v17q0 22 10 34l-29 28l13 12q25 -19 27 -21.5t4 -1.5q19 18 57 13q18 -5 28 -16z" />
<glyph unicode="&#xa5;" horiz-adv-x="255" d="M138 116q12 15 15 20.5t6 10.5q-5 -1 -11 0t-6 6q-7 9 16.5 9t25.5 1q10 -2 11 -9q0 -7 -8 -7h-8q-23 -33 -29 -41t-22 -26q7 13 2 -65v-6q1 -1 20 -1q4 -8 4 -10q0 -3 -4 -6q-21 0 -37 -1t-22 2q-5 5 -2 9q1 5 19 5q1 4 2 9q0 4 1 32.5t-1.5 31.5t-10.5 14 q-27 35 -30 39t-5 9l-6 1q-6 1 -6 6.5t5 8.5q37 2 39 -1q4 -3 4 -7q0 -5 -6.5 -5.5t-7.5 -0.5t6 -8q3 -5 10 -14.5t12 -16.5q8 -6 9 -9zM152 91q12 -5 12 -10v-7h-13q-14 0 -29 -1q-23 -1 -43 2v4q2 8 10 10h31q15 0 32 2zM89 56h63q12 -1 12 -8v-4q0 -6 -19 -8l-4 2h-44 q-19 2 -19 10v4z" />
<glyph unicode="&#xa7;" d="M142 5q14 18 -9 30q-14 6 -28 13q-26 13 -26 31q-5 26 15 37l2 2q-7 5 -10 22t9.5 29.5t45.5 7.5q33 -19 11 -36q-10 18 -23 20q-19 4 -23 -11q-4 -19 20.5 -26.5t27.5 -22.5q3 -7 0 -15q-1 -21 -21 -28q1 0 6 -3q9 -2 17 -7q12 -7 12 -33q-9 -31 -30 -32.5t-30.5 0.5 t-16 7t-12.5 11q1 12 11.5 6.5t22 -7.5t29.5 5zM111 73q23 1 21 18q-1 9 -6 12t-12.5 3t-14.5 -9q-4 -17 12 -24z" />
<glyph unicode="&#xa8;" d="M83 171q1 14 13 15q15 2 15 -17q0 -13 -13 -14q-16 1 -15 16zM144 171q1 14 13 15q15 2 15 -17q0 -13 -13 -14q-16 1 -15 16z" />
<glyph unicode="&#xad;" horiz-adv-x="138" d="M112 87l5 -11v-6l-15 -1q-28 -1 -76 -1l-6 11q1 6 11 6q41 2 81 2z" />
<glyph unicode="&#xb0;" d="M99 162q-1 25 29 29q25 -1 27 -24q-1 -18 -9 -25.5t-21 -7.5q-24 0 -26 28zM115 162q0 -12 12 -12q9 -1 12 14q-1 9 -10 12q-16 -3 -14 -14z" />
<glyph unicode="&#xb1;" d="M126 154l12 -1q-4 -8 -3 -49q16 -1 34 1l14 -1l5 -19h-18h-33q0 -6 -2 -51l-18 -1v7q-1 18 0 33q-3 30 6 11q-30 1 -49 0l-1 19h22h22v0q0 11 1 38v11q4 2 8 2zM187 28l1 -11v-6l-18 -1q-35 -1 -94 -1l-4 12q1 6 10 5q51 2 105 2z" />
<glyph unicode="&#xb7;" d="M105 93q1 16 15 17q18 2 18 -20q-1 -15 -16 -16q-18 1 -17 19z" />
<glyph unicode="&#xd7;" d="M170 126l6 -9q-7 -3 -36 -36q10 -12 23 -25l12 -15l-9 -13l-14 15l-24 23q-5 -4 -39 -39l-13 13l10 9l20 20l8 10q-16 19 -36 38l16 13l18 -22l14 -15v0q9 7 26 27l11 11q3 -1 7 -5z" />
<glyph unicode="&#xe0;" horiz-adv-x="96" d="M23 134l19 1q31 -32 8 -38zM54 92q18 1 30 -20q-2 -25 -6 -36l2 -8q1 -6 6 -12q7 -7 7 -13l-14 -3q-10 6 -15 20q-18 -21 -33 -20q-24 3 -27 29q3 50 32 62q11 3 18 1zM21 41l1 -13q2 -8 6 -8h7q16 0 28 32l3 17q-4 8 -14 8h-1q-23 0 -30 -36z" />
<glyph unicode="&#xe1;" horiz-adv-x="96" d="M54 92q18 1 30 -20q-2 -25 -6 -36l2 -8q1 -6 6 -12q7 -7 7 -13l-14 -3q-10 6 -15 20q-18 -21 -33 -20q-24 3 -27 29q3 50 32 62q11 3 18 1zM21 41l1 -13q2 -8 6 -8h7q16 0 28 32l3 17q-4 8 -14 8h-1q-23 0 -30 -36zM64 142l11 -11l-23 -32q-28 -2 12 43z" />
<glyph unicode="&#xe8;" horiz-adv-x="88" d="M53 93q31 -4 33 -29q-3 -22 -64 -23v0q-1 -21 16 -23q10 -5 48 6l-3 -12q-26 -15 -46 -12q-40 7 -32 54q8 40 48 39zM25 57h4q25 -5 41 12v1q1 4 -6 7l-5 1q-29 -2 -34 -21zM22 134l19 1q31 -32 8 -38z" />
<glyph unicode="&#xe9;" horiz-adv-x="100" d="M59 93q31 -5 33 -30q-4 -21 -65 -22v0q-1 -21 15 -23q10 -5 50 6l-4 -13q-27 -15 -47 -11q-40 8 -31 55q9 39 49 38zM30 58l4 -1q25 -5 41 11v1q1 4 -5 8l-5 1q-30 -2 -35 -20zM62 141l11 -11l-23 -32q-28 -2 12 43z" />
<glyph unicode="&#xea;" horiz-adv-x="97" d="M55 93q30 -5 32 -29q-3 -22 -64 -23v0q-1 -21 16 -23q9 -5 51 8l-4 -13q-29 -17 -49 -13q-40 7 -31 54q9 40 49 39zM26 58l4 -1q25 -5 41 12v1q1 4 -5 7l-5 1q-30 -2 -35 -20zM47 139q40 -26 20 -37l-21 16l-19 -18q-19 10 20 39z" />
<glyph unicode="&#xec;" horiz-adv-x="51" d="M14 88l1 12l18 -1l2 -53l-1 -48l-17 1q-3 16 -3 57v32zM1 146l19 1q31 -32 8 -38z" />
<glyph unicode="&#xed;" horiz-adv-x="45" d="M13 88l1 12l18 -1l2 -53l-1 -48l-17 1q-3 16 -3 57v32zM33 151l11 -11l-23 -32q-28 -2 12 43z" />
<glyph unicode="&#xf2;" horiz-adv-x="94" d="M46 94q37 -2 40 -48q-2 -41 -43 -47q-38 0 -39 46q7 46 36 49h6zM23 53l-1 -14q1 -19 21 -24q26 8 26 30q5 28 -25 33q-20 -5 -21 -25zM22 140l19 1q31 -32 8 -38z" />
<glyph unicode="&#xf3;" horiz-adv-x="95" d="M47 94q37 -2 40 -48q-2 -41 -43 -47q-38 0 -39 46q7 46 36 49h6zM24 53l-1 -14q1 -19 21 -24q26 8 26 30q5 28 -25 33q-20 -5 -21 -25zM56 141l11 -11l-23 -32q-28 -2 12 43z" />
<glyph unicode="&#xf7;" d="M180 89l6 -10v-7l-18 -1q-35 -1 -94 -1l-7 11q1 6 13 6q51 2 100 2zM113 114q1 13 12 14q15 2 15 -16q-1 -12 -13 -13q-15 1 -14 15zM113 46q1 13 12 14q15 2 15 -16q-1 -12 -13 -13q-15 1 -14 15z" />
<glyph unicode="&#xf9;" horiz-adv-x="94" d="M18 90q5 0 10 -8q-4 -29 0 -54l4 -6q27 -17 32 58q1 5 1 9h11q0 -3 3 -9q-3 -33 0 -53l11 -20l2 -7h-6q-12 0 -20 16q-8 -17 -30 -15q-23 7 -25 24v2q-2 13 0 51q-1 12 7 12zM25 134l19 1q31 -32 8 -38z" />
<glyph unicode="&#xfa;" horiz-adv-x="97" d="M16 90q5 0 10 -8q-4 -29 0 -54l4 -6q27 -17 32 58q1 5 1 9h11q0 -3 3 -9q-3 -33 0 -53l11 -20l2 -7h-6q-12 0 -20 16q-8 -17 -30 -15q-23 7 -25 24v2q-2 13 0 51q-1 12 7 12zM58 141l11 -11l-23 -32q-28 -2 12 43z" />
<glyph unicode="&#xfc;" horiz-adv-x="101" d="M20 90q5 0 10 -8q-4 -29 0 -54l4 -6q27 -17 32 58q1 5 1 9h11q0 -3 3 -9q-3 -33 0 -53l11 -20l2 -7h-6q-12 0 -20 16q-8 -17 -30 -15q-23 7 -25 24v2q-2 13 0 51q-1 12 7 12zM22 119q12 -1 11 -11q0 -9 -12 -11q-9 1 -9 9v4q1 8 10 9zM73 119q12 -1 11 -11q0 -9 -12 -11 q-9 1 -9 9v4q1 8 10 9z" />
<glyph unicode="&#x2000;" horiz-adv-x="104" />
<glyph unicode="&#x2001;" horiz-adv-x="208" />
<glyph unicode="&#x2002;" horiz-adv-x="104" />
<glyph unicode="&#x2003;" horiz-adv-x="208" />
<glyph unicode="&#x2004;" horiz-adv-x="69" />
<glyph unicode="&#x2005;" horiz-adv-x="52" />
<glyph unicode="&#x2006;" horiz-adv-x="34" />
<glyph unicode="&#x2007;" horiz-adv-x="34" />
<glyph unicode="&#x2008;" horiz-adv-x="26" />
<glyph unicode="&#x2009;" horiz-adv-x="41" />
<glyph unicode="&#x200a;" horiz-adv-x="11" />
<glyph unicode="&#x2010;" horiz-adv-x="138" d="M112 87l5 -11v-6l-15 -1q-28 -1 -76 -1l-6 11q1 6 11 6q41 2 81 2z" />
<glyph unicode="&#x2011;" horiz-adv-x="138" d="M112 87l5 -11v-6l-15 -1q-28 -1 -76 -1l-6 11q1 6 11 6q41 2 81 2z" />
<glyph unicode="&#x2012;" horiz-adv-x="138" d="M112 87l5 -11v-6l-15 -1q-28 -1 -76 -1l-6 11q1 6 11 6q41 2 81 2z" />
<glyph unicode="&#x2013;" horiz-adv-x="169" d="M141 87l7 -11v-6l-20 -1q-37 -1 -100 -1l-8 11q1 6 15 6q54 2 106 2z" />
<glyph unicode="&#x2014;" d="M39 84h-13q-9 1 -8 11q0 6 9 6q5 0 59.5 1t87.5 1t55 -1q14 0 12 -12q4 -8 -35 -7.5t-167 1.5z" />
<glyph unicode="&#x2018;" horiz-adv-x="100" d="M73 176h7v-5q-15 -18 -15 -28q9 1 13 -12q-1 -19 -18 -17q-14 2 -12 21q5 23 25 41z" />
<glyph unicode="&#x2019;" horiz-adv-x="100" d="M31 112h-7v5q15 18 15 28q-9 -1 -13 12q1 19 19 17q14 -2 11 -21q-5 -23 -25 -41z" />
<glyph unicode="&#x201c;" d="M187 176h8v-5q-16 -18 -16 -28q9 1 14 -12q-2 -19 -19 -17q-14 2 -12 21q6 23 25 41zM216 176h7v-5q-15 -18 -15 -28q9 1 13 -12q-1 -19 -18 -17q-14 2 -12 21q5 23 25 41z" />
<glyph unicode="&#x201d;" d="M44 112h-8v5q16 18 16 28q-9 -1 -14 12q1 19 19 17q14 -2 12 -21q-6 -23 -25 -41zM72 112h-7v5q15 18 15 28q-9 -1 -13 12q1 19 18 17q15 -2 12 -21q-5 -23 -25 -41z" />
<glyph unicode="&#x2026;" d="M118 93q16 4 21 -9q0 -15 -11 -15q-13 -2 -15 15q2 5 5 9zM165 93q17 4 21 -9q0 -15 -11 -15q-13 -2 -15 15q2 5 5 9zM70 93q16 4 20 -9q0 -15 -11 -15q-13 -2 -15 15q2 5 6 9z" />
<glyph unicode="&#x202f;" horiz-adv-x="41" />
<glyph unicode="&#x205f;" horiz-adv-x="52" />
<glyph unicode="&#x20ac;" horiz-adv-x="145" d="M21 108q9 25 43 42q5 2 8 2q39 7 54 -20l-8 -3q-17 13 -43 6q-26 -12 -33 -27h13h47q8 -4 8 -9v-8h-17q-17 0 -36 -1h-21q-1 -3 -1 -8q-1 -7 0 -11h60q15 -1 15 -9v-4q0 -8 -10 -5h-19h-45q9 -17 33 -23l19 -1q27 5 41 23l7 -1q6 -9 1 -11q-19 -30 -62 -29h-4 q-44 8 -53 41q-15 2 -15 10v6l13 3v0v7q-1 8 0 13q-3 1 -11 2v4q-1 8 7 11h9z" />
<glyph unicode="&#x25fc;" horiz-adv-x="90" d="M0 90h90v-90h-90v90z" />
</font>
</defs>
</svg>
